<svg width="161" height="234" viewBox="0 0 161 234" fill="none" xmlns="http://www.w3.org/2000/svg">
<path fill-rule="evenodd" clip-rule="evenodd" d="M33.9417 111.565C32.7941 105.599 41.319 105.108 41.9748 110.176C42.6305 115.733 34.7614 116.142 33.9417 111.565ZM27.6299 4.00516H46.3192L48.2045 4.08689V8.09178L46.4012 8.17351H27.6299V4.00516ZM72.8776 94.3195C69.9267 93.0935 66.7298 91.7858 64.8445 90.3964L64.6806 102.411L11.2359 102.493V12.2601H64.6806V20.4334C67.6315 18.7987 69.5988 17.7362 72.8776 16.265C72.8776 -1.63438 69.7627 0.0819977 52.1391 0.0819977C39.6796 0.0819977 27.2201 0.0819977 14.7606 0.0819977C9.84236 0.0002653 4.43232 0.81759 3.20276 6.62059C2.547 9.88989 2.95685 90.6415 2.95685 100.449C2.95685 119.248 3.44867 118.921 22.5478 118.921C35.0073 118.921 47.4668 118.921 59.9263 118.921C64.1887 118.921 70.6644 119.33 72.5497 112.546C73.2055 110.257 72.9596 97.5071 72.8776 94.3195Z" fill="#FEFEFE"/>
<path fill-rule="evenodd" clip-rule="evenodd" d="M120.256 111.565C119.191 105.844 127.634 105.026 128.289 110.176C129.027 115.652 121.158 116.06 120.256 111.565ZM114.026 4.00515H132.634L134.519 4.08688V8.17351H114.026V4.00515ZM89.3534 15.7746C89.9272 17.4093 96.8127 23.7844 97.5504 24.2748V12.2601H150.995V102.329L97.5504 102.493V94.483L89.3534 98.9783C89.3534 104.7 88.4517 111.647 91.2387 115.652C93.9437 119.657 100.419 118.921 106.485 118.921C118.781 118.921 131.076 118.921 143.372 118.921C149.766 118.921 154.684 119.575 157.799 114.834C160.012 111.565 159.192 102.738 159.192 97.9975C159.192 88.7617 159.684 9.48123 158.946 6.53886C157.553 1.22625 153.372 0.000260498 147.225 0.081993C134.929 0.081993 122.633 0.081993 110.338 0.081993C92.4683 0.081993 89.3534 -1.63439 89.3534 15.7746Z" fill="#FEFEFE"/>
<path fill-rule="evenodd" clip-rule="evenodd" d="M97.468 193.788L107.304 193.625L107.222 165.754C111.977 165.754 110.255 165.836 113.042 168.86L124.928 183.163C126.485 185.206 133.125 193.461 134.601 193.788H146.978L118.944 161.34L138.207 141.234C140.338 139.027 143.617 136.739 144.929 134.287H132.141C129.846 137.474 124.928 141.888 121.567 145.484C119.764 147.528 118.37 149.407 116.157 151.206C114.436 152.595 111.977 155.292 110.829 156.927L107.304 157.009L107.222 134.45L97.468 134.287V193.788Z" fill="#FEFEFE"/>
<path fill-rule="evenodd" clip-rule="evenodd" d="M44.2695 193.788L54.024 193.706V165.754C58.9422 165.754 57.8766 166.98 62.7948 172.538L76.3199 188.476C81.1562 194.769 79.3528 194.197 91.8943 193.788L93.6977 193.706L65.6638 161.34C66.9753 158.643 69.6803 157.009 72.1394 154.72C75.5002 151.532 89.845 135.758 91.7304 134.532L79.7627 134.287C77.9593 134.614 67.5491 146.792 65.9917 148.181C64.6801 149.407 64.1883 149.653 63.0407 150.96C61.1554 153.004 59.2701 154.965 57.5487 157.009H54.024V134.369L44.2695 134.287V193.788Z" fill="#FEFEFE"/>
<path fill-rule="evenodd" clip-rule="evenodd" d="M10.252 184.961C9.43227 184.307 9.76015 185.778 9.51424 183.163V176.87C9.51424 174.172 9.26833 170.985 9.76015 168.451C12.4652 167.389 26.892 168.042 30.9085 168.042L30.9905 159.46H9.76015V143.114H34.6792L34.2693 134.287C22.7934 134.287 11.3996 134.287 0.00567627 134.287V193.788H34.2693V184.961H10.252Z" fill="#FEFEFE"/>
<path fill-rule="evenodd" clip-rule="evenodd" d="M151.241 193.625L153.044 193.788H160.995V134.287H151.241V193.625Z" fill="#FEFEFE"/>
<path fill-rule="evenodd" clip-rule="evenodd" d="M57.0566 36.453C65.2537 33.7559 74.8442 29.0154 83.5331 37.679C85.8282 40.0493 86.9758 42.4195 89.0251 44.2176C88.8611 45.5253 88.6972 45.5253 88.3693 46.7513C91.8941 48.1408 92.2219 50.3475 94.5991 53.2082H105.665L105.747 29.0154C103.862 29.9962 99.7632 34.8184 97.714 36.6165C96.2385 35.4722 93.6154 31.1404 89.6809 28.6067C81.5658 23.3758 73.9425 23.1306 65.5816 28.7702C62.7946 30.5683 58.5321 34.1645 57.0566 36.453Z" fill="#FEFEFE"/>
<path fill-rule="evenodd" clip-rule="evenodd" d="M56.6477 85.7375C57.9592 84.3481 62.9594 78.9537 64.7628 78.2181C69.3531 83.0404 72.5499 89.8241 85.0914 90.1511C94.1082 90.3963 101.649 82.1413 105.338 78.2999C101.895 78.872 98.1247 81.0788 93.0426 81.7326C85.7472 82.6317 80.9109 79.8528 76.8124 74.7854C75.255 72.8238 71.3204 72.2517 68.3695 67.266C67.1399 65.2227 66.894 63.1794 66.0743 61.463H56.6477C56.1559 63.7515 56.2378 83.0404 56.6477 85.7375Z" fill="#FEFEFE"/>
<path fill-rule="evenodd" clip-rule="evenodd" d="M81.8939 64.9776L81.812 63.1794V62.6891L81.8939 60.8909C84.7629 61.5448 84.1891 63.9968 81.8939 64.9776ZM80.1726 53.0446V56.7226C78.2872 55.7418 78.1233 54.0254 80.1726 53.0446ZM80.1726 60.1553V64.8141C78.861 63.915 79.025 63.9968 78.5331 62.4439L75.5002 62.6891C76.156 65.8766 76.9757 66.9391 80.1726 67.6747C80.2545 69.3911 80.0086 68.819 80.7463 69.7998C82.1398 69.3911 81.73 70.2902 81.8939 67.7565C86.7302 66.5305 89.8451 59.9919 81.812 57.2947L81.8939 53.1264C83.2874 53.9437 82.3858 53.7802 83.6973 54.761L85.9924 54.3523C85.3367 50.6744 83.6153 51.0013 82.4677 50.3474C80.5824 49.2849 82.9595 49.9388 80.7463 49.2849C79.2709 50.8378 79.8447 50.1023 77.9594 51.1648C75.4183 52.636 74.1887 57.8668 80.1726 60.1553Z" fill="#FEFEFE"/>
<path fill-rule="evenodd" clip-rule="evenodd" d="M64.6806 57.3762C69.2709 56.9675 63.2051 55.6598 72.7956 46.9961L72.8776 41.1114L64.7625 41.0297L64.6806 57.3762Z" fill="#FEFEFE"/>
<path fill-rule="evenodd" clip-rule="evenodd" d="M94.2718 219.452C94.2718 221.986 94.1079 224.029 92.6324 225.5C87.4683 230.813 80.3369 218.716 94.2718 219.452ZM85.583 216.265C88.288 215.365 86.4027 212.505 90.911 212.75C93.9439 212.913 94.1898 215.039 94.2718 217.899C89.2716 218.226 83.6976 218.553 84.1895 224.274C84.4354 226.645 86.0748 227.871 88.5339 228.116C92.3045 228.361 93.2062 226.89 94.2718 225.173C94.6817 227.871 93.9439 227.462 96.403 227.625C96.0752 222.558 98.6982 208.01 88.4519 211.606C87.3863 211.933 86.7305 212.505 86.1568 213.159C83.2878 216.183 85.583 216.265 85.583 216.265Z" fill="#FEFEFE"/>
<path fill-rule="evenodd" clip-rule="evenodd" d="M4.76003 218.798C5.16988 215.447 6.48141 212.75 9.92417 212.75C13.5309 212.668 14.5145 215.529 14.8424 218.961L4.76003 218.798ZM16.3998 222.721C12.3013 223.048 15.0063 226.971 9.43234 226.644C6.2355 226.399 5.08791 223.702 4.67806 220.514L16.6457 220.351C16.8097 207.764 4.43215 209.153 2.87471 217.735C0.825452 229.096 14.3506 231.875 16.3998 222.721Z" fill="#FEFEFE"/>
<path fill-rule="evenodd" clip-rule="evenodd" d="M138.536 218.88C139.355 210.707 147.88 210.38 148.618 218.88H138.536ZM150.175 222.721C146.897 222.885 149.028 223.13 147.143 225.173C146.405 225.991 144.929 226.726 143.372 226.644C139.929 226.481 138.782 223.866 138.536 220.433L150.503 220.351C150.585 208.5 138.372 208.663 136.65 217.572C134.437 229.342 147.962 231.712 150.175 222.721Z" fill="#FEFEFE"/>
<path fill-rule="evenodd" clip-rule="evenodd" d="M21.0721 221.658C24.3509 219.533 24.187 219.37 28.9413 219.452C28.8593 222.721 28.6134 225.255 26.0723 226.317C21.8918 227.952 20.5803 225.336 21.0721 221.658ZM20.0885 216.264C23.1214 215.529 20.7442 212.586 25.4165 212.75C28.6954 212.831 28.8593 214.875 28.9413 217.981C24.187 218.062 18.613 218.716 18.7769 223.784C18.9409 228.687 26.4002 229.832 28.3675 225.5C30.0889 227.707 27.8757 227.38 31.0725 227.625C30.5807 221.086 32.9578 208.173 22.9574 211.605C21.8918 212.014 21.1541 212.341 20.5803 213.077C20.4983 213.158 19.8426 214.303 19.8426 214.384C18.9409 217.327 19.8426 215.855 20.0885 216.264Z" fill="#FEFEFE"/>
<path fill-rule="evenodd" clip-rule="evenodd" d="M47.385 233.428C51.8114 236.207 54.2705 227.707 55.4181 224.601C57.0575 220.351 58.6969 216.019 60.2543 211.851L58.451 211.687C55.9919 215.692 55.582 222.476 53.041 225.745L49.0244 214.303C48.0408 211.524 48.7785 211.769 46.0735 211.687C49.5162 223.702 55.746 229.505 48.6146 232.284C47.303 232.774 47.7948 232.12 47.385 233.428Z" fill="#FEFEFE"/>
<path fill-rule="evenodd" clip-rule="evenodd" d="M102.223 214.139C102.141 212.341 102.797 211.442 100.256 211.769V227.543L102.141 227.625C102.141 222.394 100.911 213.404 106.567 212.75C110.092 212.423 110.994 214.385 111.158 217.49C111.322 220.76 111.158 224.356 111.158 227.625L113.043 227.462C113.043 224.111 113.535 216.019 112.223 213.731C110.912 211.36 106.158 209.072 102.223 214.139Z" fill="#FEFEFE"/>
<path fill-rule="evenodd" clip-rule="evenodd" d="M43.2041 224.683C41.9746 226.318 40.4991 227.217 37.8761 226.399C34.4333 225.255 37.3842 223.13 33.7775 222.967C33.6136 229.342 42.7943 229.342 44.7616 225.582C48.5322 218.226 33.9415 219.861 36.2366 214.221C37.3023 213.077 38.7777 212.096 40.9909 213.077C44.1878 214.466 40.827 215.938 44.9255 216.101C42.8762 204.413 26.0723 216.019 38.2859 220.188C41.8106 221.332 43.2861 220.923 43.2041 224.683Z" fill="#FEFEFE"/>
<path fill-rule="evenodd" clip-rule="evenodd" d="M125.174 224.683C123.944 226.317 122.551 227.216 119.846 226.399C116.485 225.255 119.354 223.13 115.747 222.966C115.583 229.341 124.764 229.341 126.731 225.582C128.043 222.966 126.322 220.678 124.6 219.697C123.207 219.043 116.649 217.981 118.207 214.221C119.272 213.077 120.748 212.096 123.043 213.077C126.24 214.466 122.879 215.937 126.977 216.101C125.584 208.663 117.141 210.625 116.239 214.711C114.682 222.476 125.256 217.735 125.174 224.683Z" fill="#FEFEFE"/>
<path fill-rule="evenodd" clip-rule="evenodd" d="M89.3536 73.8047H97.5506V57.5399L95.6653 57.3765C95.9932 62.5256 94.9275 66.5305 91.4848 70.045C90.3372 71.271 89.4355 71.3527 89.3536 73.8047Z" fill="#FEFEFE"/>
<path fill-rule="evenodd" clip-rule="evenodd" d="M130.257 212.096H128.618V213.649H130.339V227.544L132.142 227.625V213.649C134.765 213.649 134.356 213.894 135.421 213.159C134.847 211.524 134.438 212.096 132.224 212.096C131.978 204.005 134.274 208.99 135.667 205.885C135.257 205.639 135.503 205.476 134.601 205.312C129.765 204.659 130.339 209.726 130.257 212.096Z" fill="#FEFEFE"/>
<path fill-rule="evenodd" clip-rule="evenodd" d="M68.6973 212.178C65.9103 212.26 66.8939 211.606 66.648 213.649H68.6973C68.6973 217.409 68.1235 224.519 69.435 227.707C70.9925 228.034 71.8941 228.524 73.3696 227.625C72.9598 226.318 73.6975 227.217 72.4679 226.645C71.8122 226.318 71.4843 226.399 70.8285 225.991C70.3367 221.168 70.5006 218.553 70.5006 213.649H73.5335C73.2876 211.442 73.4516 212.178 70.5006 212.178V208.745H69.1071C69.0252 208.827 68.9432 208.827 68.9432 209.072L68.6973 212.178Z" fill="#FEFEFE"/>
<path fill-rule="evenodd" clip-rule="evenodd" d="M155.831 214.139C155.093 212.259 155.995 211.524 153.618 211.769V227.543L155.503 227.625C155.503 221.168 154.191 214.711 158.618 212.995C160.749 212.096 159.601 213.404 160.257 211.687C160.257 211.687 159.929 210.298 157.47 211.769C156.487 212.341 156.241 213.24 155.831 214.139Z" fill="#FEFEFE"/>
<path fill-rule="evenodd" clip-rule="evenodd" d="M78.4508 213.976C77.959 211.279 78.9426 211.769 76.4015 211.687V227.625L78.2049 227.543C78.2049 223.865 77.3852 215.937 79.8443 213.731C81.6476 212.096 82.3034 213.812 83.0411 211.687C80.8279 210.298 79.4344 212.505 78.4508 213.976Z" fill="#FEFEFE"/>
</svg>
