<svg width="181" height="60" viewBox="0 0 181 60" fill="none" xmlns="http://www.w3.org/2000/svg">
<g clip-path="url(#clip0)">
<path fill-rule="evenodd" clip-rule="evenodd" d="M15.7794 51.7667C15.2458 48.9983 19.2097 48.7707 19.5146 51.122C19.8195 53.7009 16.1605 53.8905 15.7794 51.7667ZM12.8446 1.85859H21.5347L22.4113 1.89651V3.7548L21.5728 3.79272H12.8446V1.85859ZM33.8837 43.7648C32.5116 43.1959 31.0251 42.5891 30.1485 41.9444L30.0723 47.5192L5.22172 47.5572V5.68893H30.0723V9.48134C31.4444 8.72286 32.3591 8.22984 33.8837 7.54721C33.8837 -0.758175 32.4354 0.0382317 24.2408 0.0382317C18.4474 0.0382317 12.654 0.0382317 6.86064 0.0382317C4.57378 0.000307544 2.05823 0.379549 1.48652 3.07216C1.1816 4.58913 1.37217 42.0582 1.37217 46.6091C1.37217 55.3316 1.60086 55.1799 10.4815 55.1799C16.2749 55.1799 22.0683 55.1799 27.8616 55.1799C29.8436 55.1799 32.8546 55.3695 33.7313 52.2218C34.0362 51.16 33.9218 45.2438 33.8837 43.7648Z" fill="#FEFEFE"/>
<path fill-rule="evenodd" clip-rule="evenodd" d="M55.9137 51.7668C55.4182 49.1121 59.344 48.7328 59.6489 51.122C59.9919 53.663 56.3329 53.8526 55.9137 51.7668ZM53.017 1.85857H61.6689L62.5456 1.89649V3.7927H53.017V1.85857ZM41.5446 7.31964C41.8114 8.07813 45.013 11.0362 45.356 11.2638V5.68891H70.2065V47.4813L45.356 47.5572V43.8406L41.5446 45.9264C41.5446 48.5811 41.1253 51.8047 42.4212 53.663C43.679 55.5212 46.69 55.1799 49.5105 55.1799C55.2276 55.1799 60.9448 55.1799 66.6619 55.1799C69.6348 55.1799 71.9217 55.4833 73.37 53.2837C74.3991 51.7668 74.018 47.6709 74.018 45.4713C74.018 41.1859 74.2467 4.39948 73.9036 3.03421C73.2557 0.569145 71.3119 0.000282364 68.4533 0.0382065C62.7361 0.0382065 57.019 0.0382065 51.3018 0.0382065C42.9929 0.0382065 41.5446 -0.758201 41.5446 7.31964Z" fill="#FEFEFE"/>
<path fill-rule="evenodd" clip-rule="evenodd" d="M26.5276 16.9142C30.339 15.6627 34.7984 13.4631 38.8385 17.483C39.9057 18.5828 40.4393 19.6826 41.3922 20.517C41.316 21.1238 41.2397 21.1238 41.0873 21.6926C42.7262 22.3373 42.8786 23.3613 43.984 24.6886H49.1294L49.1675 13.4631C48.2909 13.9182 46.3852 16.1557 45.4323 16.99C44.7462 16.4591 43.5266 14.4491 41.6971 13.2735C37.9238 10.8463 34.3791 10.7325 30.4915 13.3493C29.1956 14.1836 27.2136 15.8523 26.5276 16.9142Z" fill="#FEFEFE"/>
<path fill-rule="evenodd" clip-rule="evenodd" d="M26.3371 39.7824C26.9469 39.1377 29.2719 36.6347 30.1104 36.2934C32.2448 38.5309 33.7313 41.6786 39.5628 41.8303C43.7554 41.9441 47.2619 38.1138 48.9771 36.3313C47.3763 36.5968 45.623 37.6207 43.2599 37.9241C39.8677 38.3413 37.619 37.0519 35.7132 34.7006C34.9891 33.7904 33.1596 33.5249 31.7875 31.2116C31.2158 30.2635 31.1014 29.3154 30.7203 28.519H26.3371C26.1084 29.5808 26.1465 38.5309 26.3371 39.7824Z" fill="#FEFEFE"/>
<path fill-rule="evenodd" clip-rule="evenodd" d="M38.0762 30.1497L38.0381 29.3154V29.0878L38.0762 28.2535C39.4102 28.5569 39.1434 29.6946 38.0762 30.1497ZM37.2758 24.6128V26.3194C36.3992 25.8643 36.3229 25.0679 37.2758 24.6128ZM37.2758 27.9122V30.0738C36.666 29.6567 36.7422 29.6946 36.5135 28.974L35.1033 29.0878C35.4082 30.5669 35.7893 31.0599 37.2758 31.4012C37.3139 32.1976 37.1996 31.9321 37.5426 32.3872C38.1905 32.1976 38 32.6148 38.0762 31.4391C40.325 30.8703 41.7733 27.8363 38.0381 26.5848L38.0762 24.6507C38.7242 25.0299 38.3049 24.9541 38.9147 25.4092L39.9819 25.2196C39.677 23.513 38.8766 23.6647 38.343 23.3613C37.4664 22.8683 38.5717 23.1716 37.5426 22.8683C36.8565 23.5888 37.1233 23.2475 36.2467 23.7405C35.0652 24.4231 34.4934 26.8503 37.2758 27.9122Z" fill="#FEFEFE"/>
<path fill-rule="evenodd" clip-rule="evenodd" d="M30.0723 26.6227C32.2067 26.4331 29.3862 25.8263 33.8456 21.8064L33.8837 19.0758L30.1104 19.0379L30.0723 26.6227Z" fill="#FEFEFE"/>
<path fill-rule="evenodd" clip-rule="evenodd" d="M41.5447 34.2455H45.3561V26.6986L44.4795 26.6227C44.6319 29.012 44.1365 30.8702 42.5357 32.501C42.0021 33.0698 41.5828 33.1078 41.5447 34.2455Z" fill="#FEFEFE"/>
</g>
<g clip-path="url(#clip1)">
<path fill-rule="evenodd" clip-rule="evenodd" d="M143.441 35.5112L149.19 35.4153L149.142 19.0735C151.92 19.0735 150.914 19.1214 152.543 20.8945L159.49 29.2811C160.4 30.4792 164.28 35.3195 165.143 35.5112H172.377L155.992 16.4856L167.251 4.69647C168.496 3.40254 170.412 2.06069 171.179 0.622986H163.705C162.364 2.492 159.49 5.07985 157.525 7.18848C156.471 8.38656 155.657 9.4888 154.364 10.5431C153.357 11.3578 151.92 12.9393 151.25 13.8977L149.19 13.9457L149.142 0.718832L143.441 0.622986V35.5112Z" fill="#FEFEFE"/>
<path fill-rule="evenodd" clip-rule="evenodd" d="M112.349 35.5112L118.05 35.4632V19.0735C120.924 19.0735 120.301 19.7923 123.176 23.0511L131.081 32.3961C133.907 36.0862 132.853 35.7508 140.183 35.5112L141.237 35.4632L124.853 16.4856C125.619 14.9041 127.2 13.9457 128.637 12.6038C130.602 10.7348 138.985 1.48561 140.087 0.766756L133.093 0.622986C132.039 0.814679 125.955 7.95525 125.044 8.76995C124.278 9.4888 123.99 9.63257 123.32 10.3993C122.218 11.5974 121.116 12.7476 120.11 13.9457H118.05V0.670909L112.349 0.622986V35.5112Z" fill="#FEFEFE"/>
<path fill-rule="evenodd" clip-rule="evenodd" d="M92.4674 30.3354C91.9883 29.9521 92.18 30.8147 92.0362 29.2811V25.591C92.0362 24.0096 91.8925 22.1406 92.18 20.6549C93.7609 20.0319 102.193 20.4153 104.54 20.4153L104.588 15.3834H92.18V5.7987H106.744L106.504 0.622986C99.7972 0.622986 93.1381 0.622986 86.479 0.622986V35.5112H106.504V30.3354H92.4674Z" fill="#FEFEFE"/>
<path fill-rule="evenodd" clip-rule="evenodd" d="M174.868 35.4153L175.922 35.5112H180.569V0.622986H174.868V35.4153Z" fill="#FEFEFE"/>
<path fill-rule="evenodd" clip-rule="evenodd" d="M141.572 50.5591C141.572 52.0447 141.477 53.2428 140.614 54.1054C137.596 57.2204 133.428 50.1278 141.572 50.5591ZM136.494 48.6901C138.075 48.1629 136.973 46.4856 139.608 46.6294C141.381 46.7252 141.524 47.9712 141.572 49.6485C138.65 49.8402 135.392 50.0319 135.68 53.3865C135.823 54.7763 136.782 55.4952 138.219 55.6389C140.423 55.7827 140.95 54.9201 141.572 53.9137C141.812 55.4952 141.381 55.2555 142.818 55.3514C142.626 52.3802 144.159 43.8498 138.171 45.9585C137.548 46.1501 137.165 46.4856 136.83 46.869C135.153 48.6422 136.494 48.6901 136.494 48.6901Z" fill="#FEFEFE"/>
<path fill-rule="evenodd" clip-rule="evenodd" d="M89.2576 50.1757C89.4971 48.2108 90.2636 46.6294 92.2757 46.6294C94.3837 46.5815 94.9585 48.2588 95.1502 50.2715L89.2576 50.1757ZM96.0604 52.476C93.6651 52.6677 95.246 54.968 91.9883 54.7763C90.1199 54.6326 89.4492 53.0511 89.2097 51.1821L96.2041 51.0862C96.2999 43.7061 89.066 44.5208 88.1557 49.5527C86.958 56.214 94.8627 57.8434 96.0604 52.476Z" fill="#FEFEFE"/>
<path fill-rule="evenodd" clip-rule="evenodd" d="M167.442 50.2236C167.921 45.4313 172.904 45.2396 173.335 50.2236H167.442ZM174.245 52.476C172.329 52.5719 173.574 52.7156 172.472 53.9137C172.041 54.393 171.179 54.8243 170.269 54.7764C168.257 54.6805 167.586 53.147 167.442 51.1342L174.437 51.0862C174.484 44.1373 167.346 44.2332 166.34 49.4568C165.047 56.3578 172.951 57.7476 174.245 52.476Z" fill="#FEFEFE"/>
<path fill-rule="evenodd" clip-rule="evenodd" d="M98.7912 51.853C100.708 50.607 100.612 50.5112 103.39 50.5591C103.342 52.476 103.199 53.9617 101.714 54.5847C99.2703 55.5431 98.5038 54.0096 98.7912 51.853ZM98.2163 48.6901C99.9889 48.2588 98.5996 46.5335 101.33 46.6294C103.247 46.6773 103.342 47.8754 103.39 49.6965C100.612 49.7444 97.354 50.1278 97.4498 53.099C97.5456 55.9744 101.905 56.6454 103.055 54.1054C104.061 55.3994 102.768 55.2077 104.636 55.3514C104.348 51.5176 105.738 43.9457 99.8931 45.9584C99.2703 46.1981 98.8391 46.3898 98.5038 46.8211C98.4559 46.869 98.0726 47.5399 98.0726 47.5878C97.5456 49.3131 98.0726 48.4505 98.2163 48.6901Z" fill="#FEFEFE"/>
<path fill-rule="evenodd" clip-rule="evenodd" d="M114.169 58.754C116.756 60.3834 118.194 55.3994 118.864 53.5783C119.822 51.0863 120.781 48.5463 121.691 46.1022L120.637 46.0064C119.2 48.3546 118.96 52.3323 117.475 54.2492L115.127 47.5399C114.553 45.9105 114.984 46.0543 113.403 46.0064C115.415 53.0511 119.056 56.4537 114.888 58.0831C114.121 58.3706 114.409 57.9872 114.169 58.754Z" fill="#FEFEFE"/>
<path fill-rule="evenodd" clip-rule="evenodd" d="M146.219 47.4441C146.171 46.3898 146.555 45.8626 145.069 46.0543V55.3035L146.171 55.3514C146.171 52.2843 145.453 47.0128 148.758 46.6294C150.818 46.4377 151.345 47.5878 151.441 49.4089C151.537 51.3259 151.441 53.4345 151.441 55.3514L152.543 55.2556C152.543 53.2907 152.83 48.5463 152.064 47.2045C151.297 45.8147 148.519 44.4728 146.219 47.4441Z" fill="#FEFEFE"/>
<path fill-rule="evenodd" clip-rule="evenodd" d="M111.726 53.6261C111.008 54.5846 110.145 55.1118 108.612 54.6325C106.6 53.9616 108.325 52.7156 106.217 52.6197C106.121 56.3578 111.487 56.3578 112.636 54.1533C114.84 49.8402 106.313 50.7987 107.654 47.4919C108.277 46.821 109.139 46.2459 110.433 46.821C112.301 47.6357 110.337 48.4983 112.732 48.5942C111.535 41.7411 101.714 48.5463 108.852 50.9904C110.912 51.6613 111.774 51.4217 111.726 53.6261Z" fill="#FEFEFE"/>
<path fill-rule="evenodd" clip-rule="evenodd" d="M159.633 53.6262C158.915 54.5846 158.1 55.1118 156.519 54.6325C154.555 53.9616 156.232 52.7156 154.124 52.6198C154.028 56.3578 159.394 56.3578 160.544 54.1533C161.31 52.6198 160.304 51.2779 159.298 50.7028C158.484 50.3194 154.651 49.6964 155.561 47.492C156.184 46.8211 157.046 46.246 158.388 46.821C160.256 47.6357 158.292 48.4984 160.687 48.5942C159.873 44.2332 154.938 45.3834 154.411 47.7795C153.501 52.3322 159.681 49.5527 159.633 53.6262Z" fill="#FEFEFE"/>
<path fill-rule="evenodd" clip-rule="evenodd" d="M162.604 46.246H161.646V47.1565H162.652V55.3035L163.706 55.3514V47.1565C165.239 47.1565 164.999 47.3003 165.622 46.869C165.286 45.9105 165.047 46.246 163.753 46.246C163.61 41.5016 164.951 44.4249 165.766 42.6038C165.526 42.46 165.67 42.3642 165.143 42.2683C162.316 41.885 162.652 44.8562 162.604 46.246Z" fill="#FEFEFE"/>
<path fill-rule="evenodd" clip-rule="evenodd" d="M126.625 46.2939C124.996 46.3418 125.571 45.9584 125.428 47.1565H126.625C126.625 49.361 126.29 53.5303 127.056 55.3993C127.967 55.591 128.494 55.8786 129.356 55.3514C129.116 54.5846 129.548 55.1118 128.829 54.7763C128.446 54.5846 128.254 54.6326 127.871 54.3929C127.583 51.5655 127.679 50.0319 127.679 47.1565H129.452C129.308 45.8626 129.404 46.2939 127.679 46.2939V44.2811H126.865C126.817 44.3291 126.769 44.3291 126.769 44.4728L126.625 46.2939Z" fill="#FEFEFE"/>
<path fill-rule="evenodd" clip-rule="evenodd" d="M177.551 47.4441C177.119 46.3418 177.646 45.9105 176.257 46.0543V55.3035L177.359 55.3514C177.359 51.5655 176.592 47.7795 179.179 46.7732C180.425 46.246 179.754 47.0128 180.138 46.0064C180.138 46.0064 179.946 45.1917 178.509 46.0543C177.934 46.3898 177.79 46.9169 177.551 47.4441Z" fill="#FEFEFE"/>
<path fill-rule="evenodd" clip-rule="evenodd" d="M132.326 47.3482C132.039 45.7667 132.614 46.0543 131.129 46.0064V55.3514L132.183 55.3034C132.183 53.1469 131.703 48.4984 133.141 47.2044C134.195 46.246 134.578 47.2524 135.009 46.0064C133.716 45.1917 132.901 46.4856 132.326 47.3482Z" fill="#FEFEFE"/>
</g>
<defs>
<clipPath id="clip0">
<rect width="76" height="57" fill="white"/>
</clipPath>
<clipPath id="clip1">
<rect width="95" height="60" fill="white" transform="translate(86)"/>
</clipPath>
</defs>
</svg>
