<svg width="31" height="31" viewBox="0 0 31 31" fill="none" xmlns="http://www.w3.org/2000/svg">
<path d="M31 27.125L25.1875 31V29.0625H15.9844L19.8594 25.1875H25.1875V23.25L31 27.125Z" fill="#513026"/>
<path d="M0 3.875L5.8125 0V1.9375H15.0156L11.1406 5.8125H5.8125V7.75L0 3.875Z" fill="#513026"/>
<path d="M18.8713 0L0 18.8713L12.1288 31L31 12.1288L18.8713 0ZM2.69313 18.8713L18.8713 2.69313L28.3069 12.1288L12.1288 28.3069L2.69313 18.8713Z" fill="#513026"/>
<path d="M8.07988 18.8713L6.72363 20.2275L10.773 24.2769L12.1293 22.9206L13.563 24.2575L18.8718 18.8713C17.9732 19.7437 16.7675 20.2275 15.5151 20.2183C14.2627 20.209 13.0643 19.7074 12.1787 18.8218C11.2931 17.9362 10.7915 16.7378 10.7822 15.4854C10.773 14.233 11.2568 13.0273 12.1293 12.1288L6.74301 17.4375L8.07988 18.8713Z" fill="#513026"/>
<path d="M24.2572 10.7919L20.2078 6.74249L18.8515 8.09874L17.4372 6.74249L12.1284 12.1287C13.027 11.2563 14.2327 10.7725 15.4851 10.7817C16.7375 10.791 17.9359 11.2926 18.8215 12.1782C19.7071 13.0638 20.2087 14.2622 20.2179 15.5146C20.2272 16.7669 19.7433 17.9727 18.8709 18.8712L24.2572 13.5625L22.9009 12.2062L24.2572 10.7919Z" fill="#513026"/>
</svg>
